<svg width="695" height="753" viewBox="0 0 695 753" fill="none" xmlns="http://www.w3.org/2000/svg">
<path d="M222.661 0.00292971C262.349 -0.159701 308.287 5.95934 345.949 28.7256C371.117 43.9394 391.356 65.8723 403.6 95.4131C418.119 88.1191 435.02 83.3231 452.943 80.7295C498.237 74.1756 555.681 80.8393 614.146 104.918L614.621 105.118C624.522 109.402 631.242 118.842 632.026 129.63C632.811 140.418 627.527 150.73 618.35 156.401L617.91 156.668C594.105 170.804 571.616 182.861 550.549 195.541C574.818 205.165 597.583 217.619 617.359 231.769C641.939 249.354 663.367 270.584 677.468 294.084C691.371 317.254 699.199 344.609 692.681 372.684L692.359 374.021C689.391 385.975 679.196 394.75 666.934 395.905C654.863 397.042 643.381 390.551 638.115 379.675L637.869 379.153C637.863 379.141 637.758 378.922 637.487 378.493C637.204 378.045 636.784 377.435 636.184 376.667C634.964 375.105 633.213 373.153 630.823 370.839C626.006 366.175 619.395 360.82 611.154 355.03C597.306 345.302 580.1 335.214 561.815 325.969C578.724 363.87 580.154 407.67 571.167 453.044L570.723 455.245C568.118 467.937 557.41 477.362 544.489 478.333C531.771 479.289 519.947 471.827 515.313 459.994L515.099 459.428C499.184 416.166 482.154 390.547 467.535 374.936C463.96 371.118 460.465 367.831 457.077 364.98C453.211 373.755 448.726 382.618 443.845 391.033C432.057 411.357 414.575 435.073 392.68 446.729C380.718 453.096 365.94 450.331 357.091 440.068C349.81 431.625 342.734 422.046 336.893 408.087C331.459 395.101 327.58 379.496 324.587 359.13L324.3 357.145L324.296 357.116C322.243 342.56 325.601 326.951 327.581 317.597C328.527 313.126 329.263 309.614 329.814 306.825C321.114 306.63 307.273 312.714 287.608 339.327C266.13 368.395 245.484 412.266 227.066 462.018C190.373 561.138 165.703 674.689 160.27 715.464C159.093 724.291 153.931 732.072 146.294 736.591L145.547 737.018C133.702 743.561 117.069 751.943 98.3252 752.906C77.4319 753.98 58.0674 745.835 41.5674 728.291L40.7842 727.448C40.2877 726.908 39.8115 726.35 39.3574 725.774C31.9757 716.412 30.7115 705.252 30.3525 699.185C29.9179 691.839 30.5043 683.771 31.5664 675.716C33.7089 659.466 38.3354 639.341 44.5986 617.239C57.1882 572.814 77.3267 517.161 101.216 462.12C125.068 407.164 153.122 351.749 181.807 308.203C196.126 286.466 211.106 266.912 226.343 251.721C228.283 249.787 230.273 247.878 232.312 246.009C222.503 240.919 212.117 236.851 202.424 235.272L202.42 235.271C177.746 231.249 144.745 233.87 112.182 239.193C84.2215 243.764 58.7769 249.932 42.4199 253.991L35.9854 255.591C24.3876 258.469 12.2112 253.939 5.31543 244.18C-1.57993 234.421 -1.78341 221.431 4.80274 211.461L29 227.445C4.87295 211.507 4.81021 211.451 4.81739 211.439C4.82061 211.435 4.8285 211.422 4.83497 211.412C4.84787 211.393 4.86343 211.37 4.88086 211.344C4.91584 211.291 4.95958 211.225 5.0127 211.146C5.11923 210.986 5.26283 210.774 5.44141 210.511C5.79849 209.985 6.29903 209.257 6.9375 208.345C8.21412 206.521 10.0469 203.959 12.3975 200.816C17.0905 194.542 23.8918 185.894 32.4902 176.159C49.4934 156.908 74.4191 132.381 104.812 113.876C124.504 101.886 147.469 91.8529 172.64 88.0322C160.575 83.6004 149.293 80.2077 139.848 77.6963C131.965 75.6002 125.475 74.1477 121.029 73.2314C118.809 72.7739 117.107 72.4516 116.004 72.251C115.453 72.1508 115.052 72.081 114.813 72.04C114.693 72.0196 114.613 72.0063 114.575 72C114.574 71.9998 114.573 71.9992 114.572 71.999C101.21 69.8453 91.1142 58.7346 90.2471 45.2266C89.3798 31.7136 97.9789 19.3992 110.964 15.5596C132.837 9.09219 175.928 0.179781 222.621 0.00292971H222.661ZM222.73 29.0029C179.204 29.1678 138.862 37.552 119.188 43.3691C119.508 43.4206 297.634 72.1357 312.47 188.68C176.891 3.56783 29 227.445 29 227.445C59.8417 219.791 148.139 197.041 207.086 206.649C247.429 213.22 286.752 247.84 285.061 247.393C188.929 269.79 36.188 674.917 62.1299 707.818C84.5383 732.185 106.97 724.901 129.357 712.817L131.523 711.634C142.942 625.934 231.958 250.534 340.98 279.296L341.62 279.47H341.67C350.873 282.461 359.578 287.689 360.051 295.673C360.946 310.91 350.574 335.781 353.012 353.067C358.53 391.921 366.475 406.242 377.934 419.817L379.053 421.13C407.855 405.798 435.439 350.5 441.135 321.838C466.952 332.554 508.439 357.33 542.315 449.415C560.025 363.124 534.48 295.061 450.71 264.845C486.999 249.984 644.939 325.136 664.215 367.033C682.969 291.505 550.299 199.09 439.866 204.012C461.033 198.783 484.313 204.883 506.449 189.457C536.172 168.732 570.819 150.904 603.104 131.733C494.511 87.0097 394.3 109.101 387.236 155.379C381.733 53.4279 298.808 29.0752 224.533 29L222.78 29.0029H222.73Z" fill="#464B4F"/>
</svg>
