<svg width="510" height="510" viewBox="0 0 510 510" fill="none" xmlns="http://www.w3.org/2000/svg">
<path d="M462.188 350.625C470.985 350.625 478.125 343.485 478.125 334.688V47.8125C478.125 39.015 470.985 31.875 462.188 31.875H270.938V15.9375C270.938 7.14 263.797 0 255 0C246.203 0 239.062 7.14 239.062 15.9375V31.875H47.8125C39.015 31.875 31.875 39.015 31.875 47.8125V334.688C31.875 343.485 39.015 350.625 47.8125 350.625H239.062V431.683L187.951 482.795C181.727 489.018 181.727 499.107 187.951 505.33C194.175 511.554 204.263 511.554 210.487 505.33L239.062 476.754V494.062C239.062 502.86 246.203 510 255 510C263.797 510 270.938 502.86 270.938 494.062V476.754L299.513 505.33C302.629 508.446 306.701 510 310.781 510C314.861 510 318.933 508.446 322.049 505.33C328.273 499.107 328.273 489.018 322.049 482.795L270.938 431.683V350.625H462.188ZM63.75 63.75H446.25V318.75H63.75V63.75Z" fill="#464B4F"/>
<path d="M366.563 191.25C366.563 200.047 373.702 207.188 382.5 207.188C391.297 207.188 398.437 200.047 398.437 191.25V111.562C398.437 110.519 398.326 109.467 398.127 108.439C398.023 107.961 397.848 107.522 397.712 107.06C397.553 106.526 397.433 105.984 397.218 105.466C396.987 104.925 396.676 104.422 396.39 103.912C396.174 103.514 395.999 103.1 395.752 102.733C394.581 100.98 393.075 99.4819 391.321 98.3105C390.947 98.0555 390.532 97.8802 390.142 97.665C389.632 97.3861 389.13 97.0753 388.588 96.8363C388.07 96.6291 387.528 96.5016 386.994 96.3422C386.532 96.2067 386.094 96.0314 385.616 95.9278C384.596 95.7366 383.544 95.625 382.5 95.625H302.813C294.015 95.625 286.875 102.765 286.875 111.562C286.875 120.36 294.015 127.5 302.813 127.5H344.027L239.062 232.464L202.518 195.92C196.294 189.696 186.206 189.696 179.982 195.92L116.232 259.67C110.009 265.893 110.009 275.982 116.232 282.205C119.348 285.321 123.42 286.875 127.5 286.875C131.58 286.875 135.652 285.321 138.768 282.205L191.25 229.723L227.795 266.268C234.018 272.491 244.107 272.491 250.33 266.268L366.563 150.036V191.25Z" fill="#464B4F"/>
</svg>
