<svg width="156" height="134" viewBox="0 0 156 134" fill="none" xmlns="http://www.w3.org/2000/svg">
<g opacity="0.95" filter="url(#filter0_d_7_120)">
<path d="M76.06 49.11C72.98 33.11 77.46 17.4101 86.99 5.68005C86.63 5.74005 86.27 5.79005 85.91 5.86005C57.18 11.39 38.37 39.15 43.9 67.88C49.43 96.61 77.19 115.42 105.92 109.89C118.65 107.44 129.42 100.62 137 91.3C108.66 96.16 81.52 77.48 76.06 49.11Z" fill="url(#paint0_linear_7_120)"/>
<path d="M146.24 45.33L135.06 44.25L127.82 52.85L125.4 41.8701L114.99 37.65L124.67 31.95L125.47 20.7401L133.88 28.2L144.79 25.4901L140.3 35.79L146.24 45.33Z" fill="url(#paint1_linear_7_120)"/>
<path d="M131.37 75.75L124.15 75.02L119.46 80.56L117.92 73.47L111.21 70.72L117.48 67.06L118.02 59.83L123.43 64.66L130.48 62.9301L127.56 69.58L131.37 75.75Z" fill="url(#paint2_linear_7_120)"/>
<path d="M109.85 28.21L102.63 27.4901L97.9401 33.02L96.4001 25.9301L89.6801 23.1801L95.9501 19.53L96.4901 12.29L101.9 17.1201L108.95 15.4L106.03 22.04L109.85 28.21Z" fill="url(#paint3_linear_7_120)"/>
</g>
<defs>
<filter id="filter0_d_7_120" x="37.9354" y="0.680054" width="117.305" height="119.175" filterUnits="userSpaceOnUse" color-interpolation-filters="sRGB">
<feFlood flood-opacity="0" result="BackgroundImageFix"/>
<feColorMatrix in="SourceAlpha" type="matrix" values="0 0 0 0 0 0 0 0 0 0 0 0 0 0 0 0 0 0 127 0" result="hardAlpha"/>
<feOffset dx="2" dy="2"/>
<feGaussianBlur stdDeviation="3.5"/>
<feComposite in2="hardAlpha" operator="out"/>
<feColorMatrix type="matrix" values="0 0 0 0 0.980392 0 0 0 0 0.733333 0 0 0 0 0.254902 0 0 0 0.29 0"/>
<feBlend mode="normal" in2="BackgroundImageFix" result="effect1_dropShadow_7_120"/>
<feBlend mode="normal" in="SourceGraphic" in2="effect1_dropShadow_7_120" result="shape"/>
</filter>
<linearGradient id="paint0_linear_7_120" x1="42.94" y1="58.27" x2="137" y2="58.27" gradientUnits="userSpaceOnUse">
<stop stop-color="#FABB41"/>
<stop offset="0.24" stop-color="#F9B43C"/>
<stop offset="0.57" stop-color="#F8A330"/>
<stop offset="0.95" stop-color="#F7861D"/>
<stop offset="1" stop-color="#F7821A"/>
</linearGradient>
<linearGradient id="paint1_linear_7_120" x1="115.005" y1="36.8364" x2="146.235" y2="36.7274" gradientUnits="userSpaceOnUse">
<stop stop-color="#FABB41"/>
<stop offset="0.24" stop-color="#F9B43C"/>
<stop offset="0.57" stop-color="#F8A330"/>
<stop offset="0.95" stop-color="#F7861D"/>
<stop offset="1" stop-color="#F7821A"/>
</linearGradient>
<linearGradient id="paint2_linear_7_120" x1="111.21" y1="70.19" x2="131.37" y2="70.19" gradientUnits="userSpaceOnUse">
<stop stop-color="#FABB41"/>
<stop offset="0.24" stop-color="#F9B43C"/>
<stop offset="0.57" stop-color="#F8A330"/>
<stop offset="0.95" stop-color="#F7861D"/>
<stop offset="1" stop-color="#F7821A"/>
</linearGradient>
<linearGradient id="paint3_linear_7_120" x1="89.6801" y1="22.66" x2="109.85" y2="22.66" gradientUnits="userSpaceOnUse">
<stop stop-color="#FABB41"/>
<stop offset="0.24" stop-color="#F9B43C"/>
<stop offset="0.57" stop-color="#F8A330"/>
<stop offset="0.95" stop-color="#F7861D"/>
<stop offset="1" stop-color="#F7821A"/>
</linearGradient>
</defs>
</svg>
