<svg width="177" height="135" viewBox="0 0 177 135" fill="none" xmlns="http://www.w3.org/2000/svg">
<path d="M92.24 31.77C92.06 30.82 91.96 29.84 91.96 28.84C91.96 20.42 98.78 13.6 107.2 13.6C108.74 13.6 110.23 13.83 111.63 14.26C115.36 5.96001 123.69 0.169983 133.39 0.169983C146.2 0.169983 156.64 10.27 157.21 22.94C167.8 23.1 176.33 31.73 176.33 42.35C176.33 52.73 168.19 61.2 157.95 61.74C157.81 61.76 157.66 61.77 157.52 61.77H93.49C93.49 61.77 93.47 61.77 93.45 61.77C93.42 61.77 93.4 61.77 93.37 61.77C85.07 61.77 78.35 55.04 78.35 46.75C78.35 38.46 84.48 32.35 92.25 31.77H92.24Z" fill="url(#paint0_radial_1_39)"/>
<path d="M126.93 50.85C127.21 49.42 127.36 47.94 127.36 46.42C127.36 33.71 117.06 23.41 104.35 23.41C102.02 23.41 99.78 23.76 97.66 24.4C92.03 11.87 79.45 3.13 64.81 3.13C45.47 3.13 29.7 18.38 28.85 37.5C12.87 37.75 -0.0100098 50.77 -0.0100098 66.81C-0.0100098 82.85 12.28 95.27 27.74 96.09C27.95 96.12 28.17 96.13 28.39 96.13H125.06C125.06 96.13 125.1 96.13 125.12 96.13C125.16 96.13 125.2 96.13 125.23 96.13C137.75 96.13 147.91 85.98 147.91 73.45C147.91 60.92 138.66 51.71 126.92 50.84L126.93 50.85Z" fill="url(#paint1_radial_1_39)"/>
<path d="M52.3852 72.6949L52.3769 72.6893C51.5591 72.1339 50.4459 72.3466 49.8905 73.1645L23.6828 111.757C23.1274 112.575 23.3402 113.688 24.158 114.243L24.1663 114.249C24.9841 114.804 26.0973 114.592 26.6527 113.774L52.8604 75.1813C53.4158 74.3635 53.2031 73.2503 52.3852 72.6949Z" fill="url(#paint2_radial_1_39)"/>
<path d="M68.5306 78.0755L68.5223 78.0699C67.7045 77.5145 66.5913 77.7273 66.0359 78.5451L35.9068 122.912C35.3514 123.73 35.5642 124.843 36.382 125.398L36.3903 125.404C37.2082 125.959 38.3214 125.747 38.8767 124.929L69.0058 80.562C69.5612 79.7441 69.3484 78.6309 68.5306 78.0755Z" fill="url(#paint3_radial_1_39)"/>
<path d="M65.4989 67.9679L65.4906 67.9623C64.6728 67.4069 63.5595 67.6196 63.0042 68.4375L21.9651 128.87C21.4097 129.688 21.6224 130.801 22.4403 131.356L22.4485 131.362C23.2664 131.917 24.3796 131.705 24.935 130.887L65.9741 70.4543C66.5295 69.6365 66.3167 68.5233 65.4989 67.9679Z" fill="url(#paint4_radial_1_39)"/>
<path d="M80.188 74.4836L80.1797 74.478C79.3618 73.9226 78.2486 74.1353 77.6933 74.9532L51.4911 113.537C50.9358 114.355 51.1485 115.468 51.9663 116.024L51.9746 116.029C52.7924 116.585 53.9057 116.372 54.4611 115.554L80.6632 76.97C81.2186 76.1522 81.0058 75.039 80.188 74.4836Z" fill="url(#paint5_radial_1_39)"/>
<path d="M109.788 78.0726L109.78 78.067C108.962 77.5116 107.849 77.7244 107.294 78.5422L81.086 117.135C80.5306 117.953 80.7434 119.066 81.5612 119.621L81.5695 119.627C82.3873 120.182 83.5005 119.969 84.0559 119.152L110.264 80.5591C110.819 79.7412 110.606 78.628 109.788 78.0726Z" fill="url(#paint6_radial_1_39)"/>
<path d="M96.3333 79.8643L96.3251 79.8586C95.5072 79.3033 94.394 79.516 93.8386 80.3338L63.7096 124.701C63.1542 125.519 63.367 126.632 64.1848 127.187L64.1931 127.193C65.0109 127.748 66.1241 127.535 66.6795 126.718L96.8086 82.3507C97.3639 81.5328 97.1512 80.4196 96.3333 79.8643Z" fill="url(#paint7_radial_1_39)"/>
<path d="M93.3016 69.7566L93.2933 69.751C92.4755 69.1956 91.3623 69.4084 90.8069 70.2262L49.7678 130.659C49.2124 131.477 49.4252 132.59 50.243 133.145L50.2513 133.151C51.0691 133.706 52.1823 133.493 52.7377 132.676L93.7768 72.2431C94.3322 71.4252 94.1194 70.312 93.3016 69.7566Z" fill="url(#paint8_radial_1_39)"/>
<defs>
<radialGradient id="paint0_radial_1_39" cx="0" cy="0" r="1" gradientUnits="userSpaceOnUse" gradientTransform="translate(134.33 -1.76002) rotate(180) scale(42.65 42.65)">
<stop stop-color="#D1CBC3"/>
<stop offset="0.35" stop-color="#C7C1B9"/>
<stop offset="0.94" stop-color="#ACA69F"/>
<stop offset="1" stop-color="#AAA49D"/>
</radialGradient>
<radialGradient id="paint1_radial_1_39" cx="0" cy="0" r="1" gradientUnits="userSpaceOnUse" gradientTransform="translate(52.46 43.9) scale(84.07 84.07)">
<stop offset="0.16" stop-color="#FEFEFE"/>
<stop offset="0.37" stop-color="#F6F5F4"/>
<stop offset="0.74" stop-color="#E2DED9"/>
<stop offset="1" stop-color="#D1CBC3"/>
</radialGradient>
<radialGradient id="paint2_radial_1_39" cx="0" cy="0" r="1" gradientUnits="userSpaceOnUse" gradientTransform="translate(38.2786 93.4678) rotate(34.18) scale(17.8 17.8)">
<stop stop-color="#7DBAC7"/>
<stop offset="0.45" stop-color="#7AB8C5"/>
<stop offset="0.7" stop-color="#72B4C1"/>
<stop offset="0.89" stop-color="#65AEB9"/>
<stop offset="1" stop-color="#59A8B2"/>
</radialGradient>
<radialGradient id="paint3_radial_1_39" cx="0" cy="0" r="1" gradientUnits="userSpaceOnUse" gradientTransform="translate(52.0387 102.343) rotate(34.18) scale(17.8 20.292)">
<stop stop-color="#7DBAC7"/>
<stop offset="0.45" stop-color="#7AB8C5"/>
<stop offset="0.7" stop-color="#72B4C1"/>
<stop offset="0.89" stop-color="#65AEB9"/>
<stop offset="1" stop-color="#59A8B2"/>
</radialGradient>
<radialGradient id="paint4_radial_1_39" cx="0" cy="0" r="1" gradientUnits="userSpaceOnUse" gradientTransform="translate(42.0921 102.418) rotate(34.18) scale(17.8 27.234)">
<stop stop-color="#7DBAC7"/>
<stop offset="0.45" stop-color="#7AB8C5"/>
<stop offset="0.7" stop-color="#72B4C1"/>
<stop offset="0.89" stop-color="#65AEB9"/>
<stop offset="1" stop-color="#59A8B2"/>
</radialGradient>
<radialGradient id="paint5_radial_1_39" cx="0" cy="0" r="1" gradientUnits="userSpaceOnUse" gradientTransform="translate(66.073 95.2509) rotate(34.18) scale(17.8 17.8)">
<stop stop-color="#7DBAC7"/>
<stop offset="0.45" stop-color="#7AB8C5"/>
<stop offset="0.7" stop-color="#72B4C1"/>
<stop offset="0.89" stop-color="#65AEB9"/>
<stop offset="1" stop-color="#59A8B2"/>
</radialGradient>
<radialGradient id="paint6_radial_1_39" cx="0" cy="0" r="1" gradientUnits="userSpaceOnUse" gradientTransform="translate(95.6735 98.8399) rotate(34.18) scale(17.8 17.8)">
<stop stop-color="#7DBAC7"/>
<stop offset="0.45" stop-color="#7AB8C5"/>
<stop offset="0.7" stop-color="#72B4C1"/>
<stop offset="0.89" stop-color="#65AEB9"/>
<stop offset="1" stop-color="#59A8B2"/>
</radialGradient>
<radialGradient id="paint7_radial_1_39" cx="0" cy="0" r="1" gradientUnits="userSpaceOnUse" gradientTransform="translate(79.8539 104.131) rotate(34.18) scale(17.8 20.292)">
<stop stop-color="#7DBAC7"/>
<stop offset="0.45" stop-color="#7AB8C5"/>
<stop offset="0.7" stop-color="#72B4C1"/>
<stop offset="0.89" stop-color="#65AEB9"/>
<stop offset="1" stop-color="#59A8B2"/>
</radialGradient>
<radialGradient id="paint8_radial_1_39" cx="0" cy="0" r="1" gradientUnits="userSpaceOnUse" gradientTransform="translate(69.919 104.171) rotate(34.18) scale(17.8 27.234)">
<stop stop-color="#7DBAC7"/>
<stop offset="0.45" stop-color="#7AB8C5"/>
<stop offset="0.7" stop-color="#72B4C1"/>
<stop offset="0.89" stop-color="#65AEB9"/>
<stop offset="1" stop-color="#59A8B2"/>
</radialGradient>
</defs>
</svg>
