<svg width="182" height="131" viewBox="0 0 182 131" fill="none" xmlns="http://www.w3.org/2000/svg">
<g opacity="0.95" filter="url(#filter0_d_1_7)">
<path d="M88.23 37.41C88.05 36.46 87.95 35.48 87.95 34.48C87.95 26.06 94.77 19.24 103.19 19.24C104.73 19.24 106.22 19.47 107.62 19.9C111.35 11.6 119.68 5.81 129.38 5.81C142.19 5.81 152.63 15.91 153.2 28.58C163.79 28.74 172.32 37.37 172.32 47.99C172.32 58.61 164.18 66.84 153.94 67.38C153.8 67.4 153.65 67.41 153.51 67.41H89.48C89.48 67.41 89.46 67.41 89.44 67.41C89.41 67.41 89.39 67.41 89.36 67.41C81.06 67.41 74.34 60.68 74.34 52.39C74.34 44.47 80.47 37.99 88.24 37.41H88.23Z" fill="url(#paint0_radial_1_7)"/>
<path d="M132.92 76.48C133.2 75.05 133.35 73.57 133.35 72.05C133.35 59.34 123.05 49.04 110.34 49.04C108.01 49.04 105.77 49.39 103.65 50.03C98.02 37.5 85.44 28.76 70.8 28.76C51.46 28.76 35.69 44.01 34.84 63.13C18.86 63.38 5.97998 76.4 5.97998 92.44C5.97998 108.48 18.27 120.9 33.73 121.72C33.94 121.75 34.16 121.76 34.38 121.76H131.05C131.05 121.76 131.09 121.76 131.11 121.76C131.15 121.76 131.19 121.76 131.22 121.76C143.74 121.76 153.9 111.61 153.9 99.08C153.9 86.55 144.65 77.34 132.91 76.47L132.92 76.48Z" fill="url(#paint1_radial_1_7)"/>
</g>
<defs>
<filter id="filter0_d_1_7" x="0.97998" y="0.809998" width="180.34" height="129.95" filterUnits="userSpaceOnUse" color-interpolation-filters="sRGB">
<feFlood flood-opacity="0" result="BackgroundImageFix"/>
<feColorMatrix in="SourceAlpha" type="matrix" values="0 0 0 0 0 0 0 0 0 0 0 0 0 0 0 0 0 0 127 0" result="hardAlpha"/>
<feOffset dx="2" dy="2"/>
<feGaussianBlur stdDeviation="3.5"/>
<feComposite in2="hardAlpha" operator="out"/>
<feColorMatrix type="matrix" values="0 0 0 0 0.6521 0 0 0 0 0.6521 0 0 0 0 0.6521 0 0 0 0.29 0"/>
<feBlend mode="normal" in2="BackgroundImageFix" result="effect1_dropShadow_1_7"/>
<feBlend mode="normal" in="SourceGraphic" in2="effect1_dropShadow_1_7" result="shape"/>
</filter>
<radialGradient id="paint0_radial_1_7" cx="0" cy="0" r="1" gradientUnits="userSpaceOnUse" gradientTransform="translate(130.32 3.88) rotate(180) scale(42.65 42.65)">
<stop stop-color="#D1CBC3"/>
<stop offset="0.35" stop-color="#C7C1B9"/>
<stop offset="0.94" stop-color="#ACA69F"/>
<stop offset="1" stop-color="#AAA49D"/>
</radialGradient>
<radialGradient id="paint1_radial_1_7" cx="0" cy="0" r="1" gradientUnits="userSpaceOnUse" gradientTransform="translate(58.45 69.54) scale(84.07 84.07)">
<stop offset="0.16" stop-color="#FEFEFE"/>
<stop offset="0.37" stop-color="#F6F5F4"/>
<stop offset="0.74" stop-color="#E2DED9"/>
<stop offset="1" stop-color="#D1CBC3"/>
</radialGradient>
</defs>
</svg>
