<svg width="158" height="143" viewBox="0 0 158 143" fill="none" xmlns="http://www.w3.org/2000/svg">
<g opacity="0.95">
<path d="M133.9 69.4101C134.18 67.9801 134.33 66.5001 134.33 64.9801C134.33 52.2701 124.03 41.9701 111.32 41.9701C108.99 41.9701 106.75 42.3201 104.63 42.9601C98.9996 30.4301 86.4196 21.6901 71.7796 21.6901C52.4396 21.6901 36.6696 36.9401 35.8196 56.0601C19.8396 56.3101 6.95959 69.3301 6.95959 85.3701C6.95959 101.41 19.2496 113.83 34.7096 114.65C34.9196 114.68 35.1396 114.69 35.3596 114.69H132.03C132.03 114.69 132.07 114.69 132.09 114.69C132.13 114.69 132.17 114.69 132.2 114.69C144.72 114.69 154.88 104.54 154.88 92.0101C154.88 79.4801 145.63 70.2701 133.89 69.4001L133.9 69.4101Z" fill="url(#paint0_radial_8_121)"/>
<g filter="url(#filter0_d_8_121)">
<path d="M37.9896 44.8501C35.8096 33.5401 38.9796 22.4401 45.7196 14.1501C45.4696 14.1901 45.2096 14.2301 44.9596 14.2801C24.6496 18.1901 11.3496 37.8201 15.2596 58.1301C19.1696 78.4401 38.7996 91.7401 59.1096 87.8301C68.1096 86.1001 75.7196 81.2801 81.0796 74.6901C61.0396 78.1201 41.8496 64.92 37.9996 44.86L37.9896 44.8501Z" fill="url(#paint1_linear_8_121)"/>
</g>
</g>
<defs>
<filter id="filter0_d_8_121" x="0.577576" y="0.150085" width="94.502" height="102.362" filterUnits="userSpaceOnUse" color-interpolation-filters="sRGB">
<feFlood flood-opacity="0" result="BackgroundImageFix"/>
<feColorMatrix in="SourceAlpha" type="matrix" values="0 0 0 0 0 0 0 0 0 0 0 0 0 0 0 0 0 0 127 0" result="hardAlpha"/>
<feOffset/>
<feGaussianBlur stdDeviation="7"/>
<feColorMatrix type="matrix" values="0 0 0 0 0.980392 0 0 0 0 0.733333 0 0 0 0 0.254902 0 0 0 0.34 0"/>
<feBlend mode="normal" in2="BackgroundImageFix" result="effect1_dropShadow_8_121"/>
<feBlend mode="normal" in="SourceGraphic" in2="effect1_dropShadow_8_121" result="shape"/>
</filter>
<radialGradient id="paint0_radial_8_121" cx="0" cy="0" r="1" gradientUnits="userSpaceOnUse" gradientTransform="translate(59.4196 62.4701) scale(84.07 84.07)">
<stop offset="0.16" stop-color="#FEFEFE"/>
<stop offset="0.37" stop-color="#F6F5F4"/>
<stop offset="0.74" stop-color="#E2DED9"/>
<stop offset="1" stop-color="#D1CBC3"/>
</radialGradient>
<linearGradient id="paint1_linear_8_121" x1="14.5696" y1="51.3201" x2="81.0696" y2="51.3201" gradientUnits="userSpaceOnUse">
<stop stop-color="#FABB41"/>
<stop offset="0.24" stop-color="#F9B43C"/>
<stop offset="0.57" stop-color="#F8A330"/>
<stop offset="0.95" stop-color="#F7861D"/>
<stop offset="1" stop-color="#F7821A"/>
</linearGradient>
</defs>
</svg>
