<svg width="168" height="123" viewBox="0 0 168 123" fill="none" xmlns="http://www.w3.org/2000/svg">
<g opacity="0.95">
<g filter="url(#filter0_d_1_10)">
<path d="M112.69 91.12L102.57 81.05L88.3401 79.83L87.0601 65.61L76.9401 55.53L85.11 43.81L83.8401 29.59L97.6201 25.86L105.79 14.14L118.75 20.15L132.54 16.43L138.6 29.36L151.55 35.37L147.89 49.17L153.95 62.1L142.27 70.32L138.6 84.12L124.37 82.91L112.69 91.12Z" fill="url(#paint0_linear_1_10)"/>
</g>
<g filter="url(#filter1_d_1_10)">
<path d="M115.42 82.44C131.851 82.44 145.17 69.1205 145.17 52.69C145.17 36.2595 131.851 22.94 115.42 22.94C98.9896 22.94 85.67 36.2595 85.67 52.69C85.67 69.1205 98.9896 82.44 115.42 82.44Z" fill="url(#paint1_linear_1_10)"/>
</g>
<path d="M127.09 77.38C127.37 75.95 127.52 74.47 127.52 72.95C127.52 60.24 117.22 49.94 104.51 49.94C102.18 49.94 99.94 50.29 97.82 50.93C92.19 38.4 79.61 29.66 64.97 29.66C45.63 29.66 29.86 44.91 29.01 64.03C13.03 64.28 0.150024 77.3 0.150024 93.34C0.150024 109.38 12.44 121.8 27.9 122.62C28.11 122.65 28.33 122.66 28.55 122.66H125.22C125.22 122.66 125.26 122.66 125.28 122.66C125.32 122.66 125.36 122.66 125.39 122.66C137.91 122.66 148.07 112.51 148.07 99.98C148.07 87.45 138.82 78.24 127.08 77.37L127.09 77.38Z" fill="url(#paint2_radial_1_10)"/>
</g>
<defs>
<filter id="filter0_d_1_10" x="62.9401" y="0.140015" width="105.01" height="104.98" filterUnits="userSpaceOnUse" color-interpolation-filters="sRGB">
<feFlood flood-opacity="0" result="BackgroundImageFix"/>
<feColorMatrix in="SourceAlpha" type="matrix" values="0 0 0 0 0 0 0 0 0 0 0 0 0 0 0 0 0 0 127 0" result="hardAlpha"/>
<feOffset/>
<feGaussianBlur stdDeviation="7"/>
<feColorMatrix type="matrix" values="0 0 0 0 0.980392 0 0 0 0 0.733333 0 0 0 0 0.254902 0 0 0 0.34 0"/>
<feBlend mode="normal" in2="BackgroundImageFix" result="effect1_dropShadow_1_10"/>
<feBlend mode="normal" in="SourceGraphic" in2="effect1_dropShadow_1_10" result="shape"/>
</filter>
<filter id="filter1_d_1_10" x="77.67" y="13.94" width="79.5" height="79.5" filterUnits="userSpaceOnUse" color-interpolation-filters="sRGB">
<feFlood flood-opacity="0" result="BackgroundImageFix"/>
<feColorMatrix in="SourceAlpha" type="matrix" values="0 0 0 0 0 0 0 0 0 0 0 0 0 0 0 0 0 0 127 0" result="hardAlpha"/>
<feOffset dx="2" dy="1"/>
<feGaussianBlur stdDeviation="5"/>
<feColorMatrix type="matrix" values="0 0 0 0 0.239216 0 0 0 0 0.152941 0 0 0 0 0.0352941 0 0 0 0.32 0"/>
<feBlend mode="normal" in2="BackgroundImageFix" result="effect1_dropShadow_1_10"/>
<feBlend mode="normal" in="SourceGraphic" in2="effect1_dropShadow_1_10" result="shape"/>
</filter>
<linearGradient id="paint0_linear_1_10" x1="88.7392" y1="24.9024" x2="127.566" y2="65.6032" gradientUnits="userSpaceOnUse">
<stop stop-color="#FABB41"/>
<stop offset="0.24" stop-color="#F9B43C"/>
<stop offset="0.57" stop-color="#F8A330"/>
<stop offset="0.95" stop-color="#F7861D"/>
<stop offset="1" stop-color="#F7821A"/>
</linearGradient>
<linearGradient id="paint1_linear_1_10" x1="88.1387" y1="40.8586" x2="142.75" y2="64.5024" gradientUnits="userSpaceOnUse">
<stop stop-color="white"/>
<stop offset="0.05" stop-color="#FFFBF5"/>
<stop offset="0.22" stop-color="#FFF1D3"/>
<stop offset="0.4" stop-color="#FFE9BA"/>
<stop offset="0.59" stop-color="#FFE3A7"/>
<stop offset="0.79" stop-color="#FFE09C"/>
<stop offset="1" stop-color="#FFDF99"/>
</linearGradient>
<radialGradient id="paint2_radial_1_10" cx="0" cy="0" r="1" gradientUnits="userSpaceOnUse" gradientTransform="translate(52.61 70.44) scale(84.07 84.07)">
<stop offset="0.16" stop-color="#FEFEFE"/>
<stop offset="0.43" stop-color="#FBFBFB"/>
<stop offset="0.62" stop-color="#F4F3F1"/>
<stop offset="0.79" stop-color="#E8E5E2"/>
<stop offset="0.95" stop-color="#D8D2CC"/>
<stop offset="1" stop-color="#D1CBC3"/>
</radialGradient>
</defs>
</svg>
