<svg width="191" height="148" viewBox="0 0 191 148" fill="none" xmlns="http://www.w3.org/2000/svg">
<g opacity="0.95" filter="url(#filter0_d_1_39)">
<path d="M97.24 36.77C97.06 35.82 96.96 34.84 96.96 33.84C96.96 25.42 103.78 18.6 112.2 18.6C113.74 18.6 115.23 18.83 116.63 19.26C120.36 10.96 128.69 5.16998 138.39 5.16998C151.2 5.16998 161.64 15.27 162.21 27.94C172.8 28.1 181.33 36.73 181.33 47.35C181.33 57.73 173.19 66.2 162.95 66.74C162.81 66.76 162.66 66.77 162.52 66.77H98.49C98.49 66.77 98.47 66.77 98.45 66.77C98.42 66.77 98.4 66.77 98.37 66.77C90.07 66.77 83.35 60.04 83.35 51.75C83.35 43.46 89.48 37.35 97.25 36.77H97.24Z" fill="url(#paint0_radial_1_39)"/>
<path d="M131.93 55.85C132.21 54.42 132.36 52.94 132.36 51.42C132.36 38.71 122.06 28.41 109.35 28.41C107.02 28.41 104.78 28.76 102.66 29.4C97.03 16.87 84.45 8.13 69.81 8.13C50.47 8.13 34.7 23.38 33.85 42.5C17.87 42.75 4.98999 55.77 4.98999 71.81C4.98999 87.85 17.28 100.27 32.74 101.09C32.95 101.12 33.17 101.13 33.39 101.13H130.06C130.06 101.13 130.1 101.13 130.12 101.13C130.16 101.13 130.2 101.13 130.23 101.13C142.75 101.13 152.91 90.98 152.91 78.45C152.91 65.92 143.66 56.71 131.92 55.84L131.93 55.85Z" fill="url(#paint1_radial_1_39)"/>
<path d="M57.3852 77.6949L57.3769 77.6893C56.5591 77.1339 55.4459 77.3466 54.8905 78.1645L28.6828 116.757C28.1274 117.575 28.3402 118.688 29.158 119.243L29.1663 119.249C29.9841 119.804 31.0973 119.592 31.6527 118.774L57.8604 80.1813C58.4158 79.3635 58.2031 78.2503 57.3852 77.6949Z" fill="url(#paint2_radial_1_39)"/>
<path d="M73.5306 83.0755L73.5223 83.0699C72.7045 82.5145 71.5913 82.7273 71.0359 83.5451L40.9068 127.912C40.3514 128.73 40.5642 129.843 41.382 130.398L41.3903 130.404C42.2082 130.959 43.3214 130.747 43.8767 129.929L74.0058 85.562C74.5612 84.7441 74.3484 83.6309 73.5306 83.0755Z" fill="url(#paint3_radial_1_39)"/>
<path d="M70.4989 72.9679L70.4906 72.9623C69.6728 72.4069 68.5595 72.6196 68.0042 73.4375L26.9651 133.87C26.4097 134.688 26.6224 135.801 27.4403 136.356L27.4485 136.362C28.2664 136.917 29.3796 136.705 29.935 135.887L70.9741 75.4543C71.5295 74.6365 71.3167 73.5233 70.4989 72.9679Z" fill="url(#paint4_radial_1_39)"/>
<path d="M85.188 79.4836L85.1797 79.478C84.3618 78.9226 83.2486 79.1353 82.6933 79.9532L56.4911 118.537C55.9358 119.355 56.1485 120.468 56.9663 121.024L56.9746 121.029C57.7924 121.585 58.9057 121.372 59.4611 120.554L85.6632 81.97C86.2186 81.1522 86.0058 80.039 85.188 79.4836Z" fill="url(#paint5_radial_1_39)"/>
<path d="M114.788 83.0726L114.78 83.067C113.962 82.5116 112.849 82.7244 112.294 83.5422L86.086 122.135C85.5306 122.953 85.7434 124.066 86.5612 124.621L86.5695 124.627C87.3873 125.182 88.5005 124.969 89.0559 124.152L115.264 85.5591C115.819 84.7412 115.606 83.628 114.788 83.0726Z" fill="url(#paint6_radial_1_39)"/>
<path d="M101.333 84.8643L101.325 84.8586C100.507 84.3033 99.394 84.516 98.8386 85.3338L68.7096 129.701C68.1542 130.519 68.367 131.632 69.1848 132.187L69.1931 132.193C70.0109 132.748 71.1241 132.535 71.6795 131.718L101.809 87.3507C102.364 86.5328 102.151 85.4196 101.333 84.8643Z" fill="url(#paint7_radial_1_39)"/>
<path d="M98.3016 74.7566L98.2933 74.751C97.4755 74.1956 96.3623 74.4084 95.8069 75.2262L54.7678 135.659C54.2124 136.477 54.4252 137.59 55.243 138.145L55.2513 138.151C56.0691 138.706 57.1823 138.493 57.7377 137.676L98.7768 77.2431C99.3322 76.4252 99.1194 75.312 98.3016 74.7566Z" fill="url(#paint8_radial_1_39)"/>
</g>
<defs>
<filter id="filter0_d_1_39" x="-0.0100098" y="0.169983" width="190.34" height="147.29" filterUnits="userSpaceOnUse" color-interpolation-filters="sRGB">
<feFlood flood-opacity="0" result="BackgroundImageFix"/>
<feColorMatrix in="SourceAlpha" type="matrix" values="0 0 0 0 0 0 0 0 0 0 0 0 0 0 0 0 0 0 127 0" result="hardAlpha"/>
<feOffset dx="2" dy="2"/>
<feGaussianBlur stdDeviation="3.5"/>
<feComposite in2="hardAlpha" operator="out"/>
<feColorMatrix type="matrix" values="0 0 0 0 0.6521 0 0 0 0 0.6521 0 0 0 0 0.6521 0 0 0 0.29 0"/>
<feBlend mode="normal" in2="BackgroundImageFix" result="effect1_dropShadow_1_39"/>
<feBlend mode="normal" in="SourceGraphic" in2="effect1_dropShadow_1_39" result="shape"/>
</filter>
<radialGradient id="paint0_radial_1_39" cx="0" cy="0" r="1" gradientUnits="userSpaceOnUse" gradientTransform="translate(139.33 3.23998) rotate(180) scale(42.65 42.65)">
<stop stop-color="#D1CBC3"/>
<stop offset="0.35" stop-color="#C7C1B9"/>
<stop offset="0.94" stop-color="#ACA69F"/>
<stop offset="1" stop-color="#AAA49D"/>
</radialGradient>
<radialGradient id="paint1_radial_1_39" cx="0" cy="0" r="1" gradientUnits="userSpaceOnUse" gradientTransform="translate(57.46 48.9) scale(84.07 84.07)">
<stop offset="0.16" stop-color="#FEFEFE"/>
<stop offset="0.37" stop-color="#F6F5F4"/>
<stop offset="0.74" stop-color="#E2DED9"/>
<stop offset="1" stop-color="#D1CBC3"/>
</radialGradient>
<radialGradient id="paint2_radial_1_39" cx="0" cy="0" r="1" gradientUnits="userSpaceOnUse" gradientTransform="translate(43.2786 98.4678) rotate(34.18) scale(17.8 17.8)">
<stop stop-color="#7DBAC7"/>
<stop offset="0.45" stop-color="#7AB8C5"/>
<stop offset="0.7" stop-color="#72B4C1"/>
<stop offset="0.89" stop-color="#65AEB9"/>
<stop offset="1" stop-color="#59A8B2"/>
</radialGradient>
<radialGradient id="paint3_radial_1_39" cx="0" cy="0" r="1" gradientUnits="userSpaceOnUse" gradientTransform="translate(57.0387 107.343) rotate(34.18) scale(17.8 20.292)">
<stop stop-color="#7DBAC7"/>
<stop offset="0.45" stop-color="#7AB8C5"/>
<stop offset="0.7" stop-color="#72B4C1"/>
<stop offset="0.89" stop-color="#65AEB9"/>
<stop offset="1" stop-color="#59A8B2"/>
</radialGradient>
<radialGradient id="paint4_radial_1_39" cx="0" cy="0" r="1" gradientUnits="userSpaceOnUse" gradientTransform="translate(47.0921 107.418) rotate(34.18) scale(17.8 27.234)">
<stop stop-color="#7DBAC7"/>
<stop offset="0.45" stop-color="#7AB8C5"/>
<stop offset="0.7" stop-color="#72B4C1"/>
<stop offset="0.89" stop-color="#65AEB9"/>
<stop offset="1" stop-color="#59A8B2"/>
</radialGradient>
<radialGradient id="paint5_radial_1_39" cx="0" cy="0" r="1" gradientUnits="userSpaceOnUse" gradientTransform="translate(71.073 100.251) rotate(34.18) scale(17.8 17.8)">
<stop stop-color="#7DBAC7"/>
<stop offset="0.45" stop-color="#7AB8C5"/>
<stop offset="0.7" stop-color="#72B4C1"/>
<stop offset="0.89" stop-color="#65AEB9"/>
<stop offset="1" stop-color="#59A8B2"/>
</radialGradient>
<radialGradient id="paint6_radial_1_39" cx="0" cy="0" r="1" gradientUnits="userSpaceOnUse" gradientTransform="translate(100.673 103.84) rotate(34.18) scale(17.8 17.8)">
<stop stop-color="#7DBAC7"/>
<stop offset="0.45" stop-color="#7AB8C5"/>
<stop offset="0.7" stop-color="#72B4C1"/>
<stop offset="0.89" stop-color="#65AEB9"/>
<stop offset="1" stop-color="#59A8B2"/>
</radialGradient>
<radialGradient id="paint7_radial_1_39" cx="0" cy="0" r="1" gradientUnits="userSpaceOnUse" gradientTransform="translate(84.8539 109.131) rotate(34.18) scale(17.8 20.292)">
<stop stop-color="#7DBAC7"/>
<stop offset="0.45" stop-color="#7AB8C5"/>
<stop offset="0.7" stop-color="#72B4C1"/>
<stop offset="0.89" stop-color="#65AEB9"/>
<stop offset="1" stop-color="#59A8B2"/>
</radialGradient>
<radialGradient id="paint8_radial_1_39" cx="0" cy="0" r="1" gradientUnits="userSpaceOnUse" gradientTransform="translate(74.919 109.171) rotate(34.18) scale(17.8 27.234)">
<stop stop-color="#7DBAC7"/>
<stop offset="0.45" stop-color="#7AB8C5"/>
<stop offset="0.7" stop-color="#72B4C1"/>
<stop offset="0.89" stop-color="#65AEB9"/>
<stop offset="1" stop-color="#59A8B2"/>
</radialGradient>
</defs>
</svg>
