<svg width="163" height="168" viewBox="0 0 163 168" fill="none" xmlns="http://www.w3.org/2000/svg">
<g opacity="0.95" filter="url(#filter0_d_1_55)">
<path d="M65.44 137.54H63.32L64.81 136.18C64.96 136.04 64.97 135.81 64.83 135.66C64.69 135.51 64.46 135.5 64.31 135.64L62.22 137.54H58.36C58.24 136.8 57.94 136.13 57.5 135.57L60.31 132.76L63.12 132.63C63.32 132.63 63.48 132.45 63.47 132.25C63.47 132.05 63.29 131.89 63.09 131.9L61.09 132L62.58 130.51C62.82 130.27 62.82 129.89 62.58 129.65C62.34 129.41 61.96 129.41 61.72 129.65L60.22 131.15L60.32 129.12C60.32 128.92 60.17 128.75 59.97 128.74C59.76 128.74 59.6 128.89 59.59 129.09L59.46 131.92L56.64 134.74C56.07 134.33 55.39 134.06 54.66 133.98V129.95L56.54 127.88C56.68 127.73 56.66 127.5 56.52 127.36C56.37 127.22 56.14 127.24 56 127.38L54.66 128.86V126.76C54.66 126.42 54.39 126.15 54.05 126.15C53.71 126.15 53.44 126.42 53.44 126.76V128.88L52.08 127.39C51.94 127.24 51.71 127.23 51.56 127.37C51.41 127.51 51.4 127.74 51.54 127.89L53.44 129.98V134.03C52.77 134.15 52.15 134.42 51.63 134.81L48.73 131.91L48.6 129.1C48.6 128.9 48.43 128.74 48.22 128.75C48.02 128.75 47.86 128.93 47.87 129.13L47.97 131.13L46.44 129.6C46.2 129.36 45.82 129.36 45.58 129.6C45.34 129.84 45.34 130.22 45.58 130.46L47.12 132L45.09 131.9C44.88 131.9 44.72 132.05 44.71 132.25C44.71 132.45 44.86 132.62 45.06 132.63L47.89 132.76L50.77 135.64C50.36 136.19 50.08 136.83 49.97 137.54H45.92L43.83 135.64C43.68 135.5 43.45 135.52 43.31 135.66C43.17 135.81 43.19 136.04 43.33 136.18L44.82 137.54H42.65C42.31 137.54 42.04 137.81 42.04 138.15C42.04 138.49 42.31 138.76 42.65 138.76H44.81L43.33 140.1C43.18 140.24 43.17 140.47 43.31 140.62C43.38 140.7 43.48 140.74 43.58 140.74C43.67 140.74 43.76 140.71 43.83 140.64L45.9 138.76H49.95C50.04 139.47 50.31 140.12 50.7 140.67L47.88 143.49L45.05 143.62C44.85 143.62 44.69 143.8 44.7 144C44.7 144.2 44.87 144.35 45.06 144.35C45.06 144.35 45.07 144.35 45.08 144.35L47.11 144.25L45.57 145.79C45.33 146.03 45.33 146.41 45.57 146.65C45.69 146.77 45.84 146.83 46 146.83C46.16 146.83 46.31 146.77 46.43 146.65L47.96 145.12L47.86 147.12C47.86 147.32 48.01 147.49 48.21 147.5C48.21 147.5 48.22 147.5 48.23 147.5C48.42 147.5 48.59 147.35 48.59 147.15L48.72 144.34L51.53 141.53C52.07 141.96 52.72 142.26 53.43 142.38V146.26L51.53 148.35C51.39 148.5 51.41 148.73 51.55 148.87C51.62 148.93 51.71 148.97 51.8 148.97C51.9 148.97 52 148.93 52.07 148.85L53.43 147.36V149.53C53.43 149.87 53.7 150.14 54.04 150.14C54.38 150.14 54.65 149.87 54.65 149.53V147.37L55.99 148.85C56.06 148.93 56.16 148.97 56.26 148.97C56.35 148.97 56.44 148.94 56.51 148.87C56.66 148.73 56.67 148.5 56.53 148.35L54.65 146.28V142.42C55.42 142.33 56.13 142.03 56.72 141.59L59.45 144.32L59.58 147.15C59.58 147.35 59.75 147.5 59.94 147.5C59.94 147.5 59.95 147.5 59.96 147.5C60.16 147.5 60.32 147.32 60.31 147.12L60.21 145.09L61.71 146.59C61.83 146.71 61.98 146.77 62.14 146.77C62.3 146.77 62.45 146.71 62.57 146.59C62.81 146.35 62.81 145.97 62.57 145.73L61.08 144.24L63.09 144.34C63.09 144.34 63.1 144.34 63.11 144.34C63.3 144.34 63.47 144.19 63.47 143.99C63.47 143.79 63.32 143.62 63.12 143.61L60.31 143.48L57.57 140.74C57.99 140.17 58.28 139.49 58.38 138.76H62.24L64.31 140.64C64.38 140.7 64.47 140.74 64.56 140.74C64.66 140.74 64.76 140.7 64.83 140.62C64.97 140.47 64.95 140.24 64.81 140.1L63.33 138.76H65.43C65.77 138.76 66.04 138.49 66.04 138.15C66.04 137.81 65.77 137.54 65.43 137.54H65.44ZM57.64 137.54H55.55L57 136.09C57.32 136.51 57.54 137 57.64 137.54ZM56.11 135.26L54.66 136.71V134.71C55.19 134.78 55.69 134.97 56.11 135.26ZM53.44 134.75V136.6L52.15 135.31C52.53 135.04 52.97 134.85 53.44 134.75ZM51.29 136.17L52.67 137.55H50.71C50.81 137.05 51.01 136.58 51.3 136.17H51.29ZM50.69 138.76H52.61L51.22 140.15C50.95 139.74 50.76 139.27 50.68 138.76H50.69ZM52.06 141.03L53.44 139.65V141.66C52.93 141.55 52.46 141.33 52.06 141.03ZM54.66 141.7V139.54L56.21 141.09C55.76 141.41 55.23 141.62 54.66 141.7ZM57.07 140.22L55.61 138.76H57.66C57.57 139.3 57.37 139.79 57.07 140.22Z" fill="url(#paint0_radial_1_55)"/>
<path d="M132.51 119.64H129.72L131.69 117.85C131.89 117.67 131.9 117.37 131.72 117.17C131.54 116.97 131.24 116.96 131.04 117.14L128.29 119.64H123.21C123.06 118.67 122.66 117.78 122.08 117.04L125.79 113.33L129.49 113.15C129.76 113.14 129.96 112.91 129.95 112.65C129.94 112.38 129.72 112.18 129.45 112.19L126.81 112.32L128.78 110.35C129.09 110.04 129.09 109.53 128.78 109.21C128.47 108.9 127.96 108.9 127.64 109.21L125.66 111.19L125.79 108.52C125.8 108.25 125.6 108.03 125.33 108.02C125.06 108.01 124.84 108.21 124.83 108.48L124.65 112.21L120.93 115.93C120.18 115.39 119.29 115.04 118.32 114.93V109.62L120.8 106.89C120.98 106.69 120.96 106.39 120.77 106.21C120.57 106.03 120.27 106.05 120.09 106.24L118.32 108.19V105.42C118.32 104.98 117.96 104.62 117.52 104.62C117.08 104.62 116.72 104.98 116.72 105.42V108.21L114.93 106.24C114.75 106.04 114.45 106.03 114.25 106.21C114.05 106.39 114.04 106.69 114.22 106.89L116.72 109.64V114.98C115.84 115.13 115.03 115.49 114.33 116.01L110.51 112.19L110.33 108.49C110.32 108.22 110.1 108.02 109.83 108.03C109.56 108.04 109.36 108.27 109.37 108.53L109.5 111.17L107.48 109.15C107.17 108.84 106.66 108.84 106.34 109.15C106.03 109.46 106.03 109.97 106.34 110.29L108.37 112.32L105.7 112.19C105.42 112.18 105.21 112.38 105.2 112.65C105.19 112.92 105.39 113.14 105.66 113.15L109.39 113.33L113.19 117.13C112.65 117.85 112.28 118.7 112.13 119.63H106.79L104.04 117.13C103.84 116.95 103.54 116.97 103.36 117.16C103.18 117.36 103.2 117.66 103.39 117.84L105.36 119.63H102.5C102.06 119.63 101.7 119.99 101.7 120.43C101.7 120.87 102.06 121.23 102.5 121.23H105.34L103.39 123C103.19 123.18 103.18 123.48 103.36 123.68C103.46 123.78 103.59 123.84 103.72 123.84C103.84 123.84 103.95 123.8 104.04 123.71L106.77 121.23H112.11C112.23 122.16 112.58 123.02 113.1 123.75L109.39 127.46L105.66 127.64C105.39 127.65 105.19 127.88 105.2 128.14C105.21 128.4 105.43 128.6 105.68 128.6H105.7L108.37 128.47L106.34 130.5C106.03 130.81 106.03 131.32 106.34 131.64C106.5 131.8 106.7 131.88 106.91 131.88C107.12 131.88 107.32 131.8 107.48 131.64L109.5 129.62L109.37 132.26C109.36 132.53 109.56 132.75 109.83 132.76H109.85C110.11 132.76 110.32 132.56 110.33 132.3L110.51 128.6L114.21 124.9C114.93 125.46 115.78 125.86 116.72 126.02V131.13L114.22 133.88C114.04 134.08 114.06 134.38 114.25 134.56C114.34 134.64 114.46 134.69 114.57 134.69C114.7 134.69 114.83 134.64 114.93 134.53L116.72 132.56V135.42C116.72 135.86 117.08 136.22 117.52 136.22C117.96 136.22 118.32 135.86 118.32 135.42V132.58L120.09 134.53C120.19 134.63 120.32 134.69 120.45 134.69C120.57 134.69 120.68 134.65 120.77 134.56C120.97 134.38 120.98 134.08 120.8 133.88L118.32 131.15V126.07C119.34 125.95 120.27 125.56 121.05 124.97L124.65 128.57L124.83 132.3C124.84 132.56 125.06 132.76 125.31 132.76H125.33C125.6 132.75 125.8 132.52 125.79 132.26L125.66 129.59L127.64 131.57C127.8 131.73 128 131.81 128.21 131.81C128.42 131.81 128.62 131.73 128.78 131.57C129.09 131.26 129.09 130.75 128.78 130.43L126.81 128.46L129.45 128.59H129.47C129.73 128.59 129.94 128.39 129.95 128.13C129.96 127.86 129.76 127.64 129.49 127.63L125.79 127.45L122.18 123.84C122.74 123.09 123.11 122.2 123.24 121.23H128.32L131.05 123.71C131.14 123.79 131.26 123.84 131.37 123.84C131.5 123.84 131.63 123.79 131.73 123.68C131.91 123.48 131.89 123.18 131.7 123L129.75 121.23H132.52C132.96 121.23 133.32 120.87 133.32 120.43C133.32 119.99 132.96 119.63 132.52 119.63L132.51 119.64ZM122.24 119.64H119.49L121.4 117.73C121.82 118.28 122.11 118.93 122.25 119.64H122.24ZM120.23 116.63L118.31 118.55V115.91C119.01 116.01 119.66 116.26 120.23 116.63ZM116.71 115.96V118.4L115.01 116.7C115.51 116.35 116.09 116.09 116.71 115.96ZM113.87 117.83L115.68 119.64H113.09C113.22 118.97 113.49 118.36 113.86 117.83H113.87ZM113.07 121.24H115.61L113.78 123.07C113.42 122.53 113.18 121.91 113.07 121.24ZM114.88 124.24L116.7 122.42V125.07C116.03 124.93 115.41 124.64 114.88 124.24ZM118.31 125.12V122.27L120.35 124.31C119.76 124.73 119.06 125.01 118.31 125.12ZM121.48 123.17L119.55 121.24H122.25C122.14 121.95 121.87 122.6 121.47 123.17H121.48Z" fill="url(#paint1_radial_1_55)"/>
<path d="M85.43 114.71H84.22L85.07 113.93C85.16 113.85 85.16 113.72 85.08 113.64C85 113.55 84.87 113.55 84.79 113.63L83.6 114.71H81.4C81.33 114.29 81.16 113.91 80.91 113.59L82.51 111.99L84.11 111.91C84.23 111.91 84.31 111.81 84.31 111.69C84.31 111.57 84.21 111.49 84.09 111.49L82.95 111.54L83.8 110.69C83.94 110.55 83.94 110.33 83.8 110.2C83.66 110.06 83.44 110.06 83.31 110.2L82.45 111.06L82.5 109.9C82.5 109.78 82.42 109.69 82.3 109.68C82.18 109.68 82.09 109.76 82.08 109.88L82 111.49L80.39 113.1C80.06 112.87 79.68 112.71 79.26 112.67V110.37L80.34 109.19C80.42 109.1 80.41 108.97 80.33 108.9C80.25 108.82 80.11 108.83 80.04 108.91L79.27 109.75V108.55C79.27 108.36 79.11 108.2 78.92 108.2C78.73 108.2 78.57 108.36 78.57 108.55V109.76L77.79 108.91C77.71 108.82 77.58 108.82 77.5 108.9C77.41 108.98 77.41 109.11 77.49 109.19L78.57 110.38V112.69C78.19 112.76 77.84 112.91 77.54 113.13L75.89 111.48L75.81 109.88C75.81 109.76 75.71 109.68 75.59 109.68C75.47 109.68 75.39 109.78 75.39 109.9L75.44 111.04L74.57 110.17C74.43 110.03 74.21 110.03 74.08 110.17C73.94 110.31 73.94 110.53 74.08 110.66L74.96 111.54L73.8 111.49C73.68 111.49 73.59 111.57 73.58 111.69C73.58 111.81 73.66 111.9 73.78 111.91L75.39 111.99L77.04 113.64C76.81 113.95 76.64 114.32 76.58 114.72H74.27L73.08 113.64C72.99 113.56 72.86 113.57 72.79 113.65C72.71 113.74 72.72 113.87 72.8 113.94L73.65 114.72H72.41C72.22 114.72 72.06 114.88 72.06 115.07C72.06 115.26 72.22 115.42 72.41 115.42H73.64L72.8 116.19C72.71 116.27 72.71 116.4 72.79 116.48C72.83 116.53 72.89 116.55 72.94 116.55C72.99 116.55 73.04 116.53 73.08 116.5L74.26 115.42H76.57C76.62 115.82 76.77 116.19 77 116.51L75.39 118.12L73.78 118.2C73.66 118.2 73.58 118.3 73.58 118.42C73.58 118.53 73.68 118.62 73.79 118.62C73.79 118.62 73.79 118.62 73.8 118.62L74.96 118.56L74.08 119.44C73.94 119.58 73.94 119.8 74.08 119.93C74.15 120 74.24 120.03 74.33 120.03C74.42 120.03 74.51 120 74.58 119.93L75.45 119.06L75.4 120.2C75.4 120.32 75.48 120.41 75.6 120.42C75.6 120.42 75.6 120.42 75.61 120.42C75.72 120.42 75.81 120.33 75.82 120.22L75.9 118.62L77.5 117.02C77.81 117.26 78.18 117.43 78.59 117.5V119.71L77.51 120.9C77.43 120.99 77.44 121.12 77.52 121.19C77.56 121.23 77.61 121.24 77.66 121.24C77.72 121.24 77.77 121.22 77.81 121.17L78.59 120.32V121.56C78.59 121.75 78.75 121.91 78.94 121.91C79.13 121.91 79.29 121.75 79.29 121.56V120.33L80.06 121.17C80.06 121.17 80.16 121.24 80.21 121.24C80.26 121.24 80.31 121.22 80.35 121.19C80.44 121.11 80.44 120.98 80.36 120.9L79.28 119.72V117.52C79.72 117.47 80.12 117.3 80.46 117.05L82.02 118.61L82.1 120.22C82.1 120.33 82.2 120.42 82.31 120.42C82.31 120.42 82.31 120.42 82.32 120.42C82.44 120.42 82.52 120.32 82.52 120.2L82.47 119.04L83.33 119.9C83.4 119.97 83.49 120 83.58 120C83.67 120 83.76 119.97 83.83 119.9C83.97 119.76 83.97 119.54 83.83 119.41L82.98 118.56L84.12 118.61C84.12 118.61 84.12 118.61 84.13 118.61C84.24 118.61 84.33 118.52 84.34 118.41C84.34 118.29 84.26 118.2 84.14 118.19L82.54 118.11L80.97 116.54C81.21 116.22 81.37 115.83 81.43 115.41H83.63L84.81 116.49C84.81 116.49 84.9 116.54 84.95 116.54C85.01 116.54 85.06 116.52 85.1 116.47C85.18 116.38 85.17 116.25 85.09 116.18L84.25 115.41H85.45C85.64 115.41 85.8 115.25 85.8 115.06C85.8 114.87 85.64 114.71 85.45 114.71H85.43ZM80.98 114.71H79.79L80.62 113.88C80.8 114.12 80.93 114.4 80.99 114.71H80.98ZM80.11 113.4L79.28 114.23V113.09C79.58 113.13 79.86 113.24 80.11 113.4ZM78.59 113.11V114.17L77.85 113.43C78.07 113.28 78.32 113.17 78.59 113.11ZM77.36 113.92L78.14 114.7H77.02C77.07 114.41 77.19 114.15 77.36 113.92ZM77.02 115.4H78.12L77.33 116.19C77.18 115.96 77.07 115.69 77.02 115.4ZM77.8 116.7L78.59 115.91V117.06C78.3 117 78.03 116.87 77.8 116.7ZM79.28 117.08V115.85L80.16 116.73C79.9 116.91 79.6 117.03 79.28 117.08ZM80.66 116.24L79.83 115.41H81C80.95 115.72 80.83 116 80.66 116.24Z" fill="url(#paint2_radial_1_55)"/>
<path d="M96.2 151.48H94.99L95.84 150.7C95.93 150.62 95.93 150.49 95.85 150.41C95.77 150.32 95.64 150.32 95.56 150.4L94.37 151.48H92.17C92.1 151.06 91.93 150.68 91.68 150.36L93.28 148.76L94.88 148.68C95 148.68 95.08 148.58 95.08 148.46C95.08 148.34 94.98 148.26 94.86 148.26L93.72 148.31L94.57 147.46C94.71 147.32 94.71 147.1 94.57 146.97C94.43 146.83 94.21 146.83 94.08 146.97L93.22 147.83L93.27 146.67C93.27 146.55 93.19 146.46 93.07 146.45C92.95 146.45 92.86 146.53 92.85 146.65L92.77 148.26L91.16 149.87C90.83 149.64 90.45 149.48 90.03 149.44V147.14L91.11 145.96C91.19 145.87 91.18 145.74 91.1 145.67C91.02 145.59 90.88 145.6 90.81 145.68L90.04 146.52V145.32C90.04 145.13 89.88 144.97 89.69 144.97C89.5 144.97 89.34 145.13 89.34 145.32V146.53L88.56 145.68C88.48 145.59 88.35 145.59 88.27 145.67C88.18 145.75 88.18 145.88 88.26 145.96L89.34 147.15V149.46C88.96 149.53 88.61 149.68 88.31 149.9L86.66 148.25L86.58 146.65C86.58 146.53 86.48 146.45 86.36 146.45C86.24 146.45 86.16 146.55 86.16 146.67L86.21 147.81L85.34 146.94C85.2 146.8 84.98 146.8 84.85 146.94C84.71 147.08 84.71 147.3 84.85 147.43L85.73 148.31L84.57 148.26C84.45 148.26 84.36 148.34 84.35 148.46C84.35 148.58 84.43 148.67 84.55 148.68L86.16 148.76L87.81 150.41C87.58 150.72 87.41 151.09 87.35 151.49H85.04L83.85 150.41C83.76 150.33 83.63 150.34 83.56 150.42C83.48 150.51 83.49 150.64 83.57 150.71L84.42 151.49H83.18C82.99 151.49 82.83 151.65 82.83 151.84C82.83 152.03 82.99 152.19 83.18 152.19H84.41L83.57 152.96C83.48 153.04 83.48 153.17 83.56 153.25C83.6 153.3 83.66 153.32 83.71 153.32C83.76 153.32 83.81 153.3 83.85 153.27L85.03 152.19H87.34C87.39 152.59 87.54 152.96 87.77 153.28L86.16 154.89L84.55 154.97C84.43 154.97 84.35 155.07 84.35 155.19C84.35 155.3 84.45 155.39 84.56 155.39C84.56 155.39 84.56 155.39 84.57 155.39L85.73 155.33L84.85 156.21C84.71 156.35 84.71 156.57 84.85 156.7C84.92 156.77 85.01 156.8 85.1 156.8C85.19 156.8 85.28 156.77 85.35 156.7L86.22 155.83L86.17 156.97C86.17 157.09 86.25 157.18 86.37 157.19C86.37 157.19 86.37 157.19 86.38 157.19C86.49 157.19 86.58 157.1 86.59 156.99L86.67 155.39L88.27 153.79C88.58 154.03 88.95 154.2 89.36 154.27V156.48L88.28 157.67C88.2 157.76 88.21 157.89 88.29 157.96C88.33 158 88.38 158.01 88.43 158.01C88.49 158.01 88.54 157.99 88.58 157.94L89.36 157.09V158.33C89.36 158.52 89.52 158.68 89.71 158.68C89.9 158.68 90.06 158.52 90.06 158.33V157.1L90.83 157.94C90.83 157.94 90.93 158.01 90.98 158.01C91.03 158.01 91.08 157.99 91.12 157.96C91.21 157.88 91.21 157.75 91.13 157.67L90.05 156.49V154.29C90.49 154.24 90.89 154.07 91.23 153.82L92.79 155.38L92.87 156.99C92.87 157.1 92.97 157.19 93.08 157.19C93.08 157.19 93.08 157.19 93.09 157.19C93.21 157.19 93.29 157.09 93.29 156.97L93.24 155.81L94.1 156.67C94.17 156.74 94.26 156.77 94.35 156.77C94.44 156.77 94.53 156.74 94.6 156.67C94.74 156.53 94.74 156.31 94.6 156.18L93.75 155.33L94.89 155.38C94.89 155.38 94.89 155.38 94.9 155.38C95.01 155.38 95.1 155.29 95.11 155.18C95.11 155.06 95.03 154.97 94.91 154.96L93.31 154.88L91.74 153.31C91.98 152.99 92.14 152.6 92.2 152.18H94.4L95.58 153.26C95.58 153.26 95.67 153.31 95.72 153.31C95.78 153.31 95.83 153.29 95.87 153.24C95.95 153.15 95.94 153.02 95.86 152.95L95.02 152.18H96.22C96.41 152.18 96.57 152.02 96.57 151.83C96.57 151.64 96.41 151.48 96.22 151.48H96.2ZM91.75 151.48H90.56L91.39 150.65C91.57 150.89 91.7 151.17 91.76 151.48H91.75ZM90.88 150.17L90.05 151V149.86C90.35 149.9 90.63 150.01 90.88 150.17ZM89.35 149.88V150.94L88.61 150.2C88.83 150.05 89.08 149.94 89.35 149.88ZM88.12 150.69L88.9 151.47H87.78C87.83 151.18 87.95 150.92 88.12 150.69ZM87.78 152.17H88.88L88.09 152.96C87.94 152.73 87.83 152.46 87.78 152.17ZM88.56 153.47L89.35 152.68V153.83C89.06 153.77 88.79 153.64 88.56 153.47ZM90.05 153.85V152.62L90.93 153.5C90.67 153.68 90.37 153.8 90.05 153.85ZM91.42 153.01L90.59 152.18H91.76C91.71 152.49 91.59 152.77 91.42 153.01Z" fill="url(#paint3_radial_1_55)"/>
<path d="M39.69 112.91H38.48L39.33 112.13C39.42 112.05 39.42 111.92 39.34 111.84C39.26 111.75 39.13 111.75 39.05 111.83L37.86 112.91H35.66C35.59 112.49 35.42 112.11 35.17 111.79L36.77 110.19L38.37 110.11C38.49 110.11 38.57 110.01 38.57 109.89C38.57 109.77 38.47 109.69 38.35 109.69L37.21 109.74L38.06 108.89C38.2 108.75 38.2 108.53 38.06 108.4C37.92 108.26 37.7 108.26 37.57 108.4L36.71 109.26L36.76 108.1C36.76 107.98 36.68 107.89 36.56 107.88C36.44 107.88 36.35 107.96 36.34 108.08L36.26 109.69L34.65 111.3C34.32 111.07 33.94 110.91 33.52 110.87V108.57L34.6 107.39C34.68 107.3 34.67 107.17 34.59 107.1C34.51 107.02 34.37 107.03 34.3 107.11L33.53 107.95V106.75C33.53 106.56 33.37 106.4 33.18 106.4C32.99 106.4 32.83 106.56 32.83 106.75V107.96L32.05 107.11C31.97 107.02 31.84 107.02 31.76 107.1C31.67 107.18 31.67 107.31 31.75 107.39L32.83 108.58V110.89C32.45 110.96 32.1 111.11 31.8 111.33L30.15 109.68L30.07 108.08C30.07 107.96 29.97 107.88 29.85 107.88C29.73 107.88 29.65 107.98 29.65 108.1L29.7 109.24L28.83 108.37C28.69 108.23 28.47 108.23 28.34 108.37C28.2 108.51 28.2 108.73 28.34 108.86L29.22 109.74L28.06 109.69C27.94 109.69 27.85 109.77 27.84 109.89C27.84 110.01 27.92 110.1 28.04 110.11L29.65 110.19L31.3 111.84C31.07 112.15 30.9 112.52 30.84 112.92H28.53L27.34 111.84C27.25 111.76 27.12 111.77 27.05 111.85C26.97 111.94 26.98 112.07 27.06 112.14L27.91 112.92H26.67C26.48 112.92 26.32 113.08 26.32 113.27C26.32 113.46 26.48 113.62 26.67 113.62H27.9L27.06 114.39C26.97 114.47 26.97 114.6 27.05 114.68C27.09 114.73 27.15 114.75 27.2 114.75C27.25 114.75 27.3 114.73 27.34 114.7L28.52 113.62H30.83C30.88 114.02 31.03 114.39 31.26 114.71L29.65 116.32L28.04 116.4C27.92 116.4 27.84 116.5 27.84 116.62C27.84 116.73 27.94 116.82 28.05 116.82C28.05 116.82 28.05 116.82 28.06 116.82L29.22 116.76L28.34 117.64C28.2 117.78 28.2 118 28.34 118.13C28.41 118.2 28.5 118.23 28.59 118.23C28.68 118.23 28.77 118.2 28.84 118.13L29.71 117.26L29.66 118.4C29.66 118.52 29.74 118.61 29.86 118.62C29.86 118.62 29.86 118.62 29.87 118.62C29.98 118.62 30.07 118.53 30.08 118.42L30.16 116.82L31.76 115.22C32.07 115.46 32.44 115.63 32.85 115.7V117.91L31.77 119.1C31.69 119.19 31.7 119.32 31.78 119.39C31.82 119.43 31.87 119.44 31.92 119.44C31.98 119.44 32.03 119.42 32.07 119.37L32.85 118.52V119.76C32.85 119.95 33.01 120.11 33.2 120.11C33.39 120.11 33.55 119.95 33.55 119.76V118.53L34.32 119.37C34.32 119.37 34.42 119.44 34.47 119.44C34.52 119.44 34.57 119.42 34.61 119.39C34.7 119.31 34.7 119.18 34.62 119.1L33.54 117.92V115.72C33.98 115.67 34.38 115.5 34.72 115.25L36.28 116.81L36.36 118.42C36.36 118.53 36.46 118.62 36.57 118.62C36.57 118.62 36.57 118.62 36.58 118.62C36.7 118.62 36.78 118.52 36.78 118.4L36.73 117.24L37.59 118.1C37.66 118.17 37.75 118.2 37.84 118.2C37.93 118.2 38.02 118.17 38.09 118.1C38.23 117.96 38.23 117.74 38.09 117.61L37.24 116.76L38.38 116.81C38.38 116.81 38.38 116.81 38.39 116.81C38.5 116.81 38.59 116.72 38.6 116.61C38.6 116.49 38.52 116.4 38.4 116.39L36.8 116.31L35.23 114.74C35.47 114.42 35.63 114.03 35.69 113.61H37.89L39.07 114.69C39.07 114.69 39.16 114.74 39.21 114.74C39.27 114.74 39.32 114.72 39.36 114.67C39.44 114.58 39.43 114.45 39.35 114.38L38.51 113.61H39.71C39.9 113.61 40.06 113.45 40.06 113.26C40.06 113.07 39.9 112.91 39.71 112.91H39.69ZM35.24 112.91H34.05L34.88 112.08C35.06 112.32 35.19 112.6 35.25 112.91H35.24ZM34.37 111.61L33.54 112.44V111.3C33.84 111.34 34.12 111.45 34.37 111.61ZM32.85 111.32V112.38L32.11 111.64C32.33 111.49 32.58 111.38 32.85 111.32ZM31.62 112.13L32.4 112.91H31.28C31.33 112.62 31.45 112.36 31.62 112.13ZM31.28 113.61H32.38L31.59 114.4C31.44 114.17 31.33 113.9 31.28 113.61ZM32.06 114.91L32.85 114.12V115.27C32.56 115.21 32.29 115.08 32.06 114.91ZM33.54 115.29V114.06L34.42 114.94C34.16 115.12 33.86 115.24 33.54 115.29ZM34.92 114.44L34.09 113.61H35.26C35.21 113.92 35.09 114.2 34.92 114.44Z" fill="url(#paint4_radial_1_55)"/>
<path d="M132.33 52.85C132.61 51.42 132.76 49.94 132.76 48.42C132.76 35.71 122.46 25.41 109.75 25.41C107.42 25.41 105.18 25.76 103.06 26.4C97.43 13.87 84.85 5.13 70.21 5.13C50.87 5.13 35.1 20.38 34.25 39.5C18.27 39.75 5.39001 52.77 5.39001 68.81C5.39001 84.85 17.68 97.27 33.14 98.09C33.35 98.12 33.57 98.13 33.79 98.13H130.46C130.46 98.13 130.5 98.13 130.52 98.13C130.56 98.13 130.6 98.13 130.63 98.13C143.15 98.13 153.31 87.98 153.31 75.45C153.31 62.92 144.06 53.71 132.32 52.84L132.33 52.85Z" fill="url(#paint5_radial_1_55)"/>
</g>
<defs>
<filter id="filter0_d_1_55" x="0.390015" y="0.130005" width="161.92" height="167.55" filterUnits="userSpaceOnUse" color-interpolation-filters="sRGB">
<feFlood flood-opacity="0" result="BackgroundImageFix"/>
<feColorMatrix in="SourceAlpha" type="matrix" values="0 0 0 0 0 0 0 0 0 0 0 0 0 0 0 0 0 0 127 0" result="hardAlpha"/>
<feOffset dx="2" dy="2"/>
<feGaussianBlur stdDeviation="3.5"/>
<feComposite in2="hardAlpha" operator="out"/>
<feColorMatrix type="matrix" values="0 0 0 0 0.6521 0 0 0 0 0.6521 0 0 0 0 0.6521 0 0 0 0.29 0"/>
<feBlend mode="normal" in2="BackgroundImageFix" result="effect1_dropShadow_1_55"/>
<feBlend mode="normal" in="SourceGraphic" in2="effect1_dropShadow_1_55" result="shape"/>
</filter>
<radialGradient id="paint0_radial_1_55" cx="0" cy="0" r="1" gradientUnits="userSpaceOnUse" gradientTransform="translate(54.04 138.15) scale(12.01 12.01)">
<stop offset="0.16" stop-color="#FEFEFE"/>
<stop offset="0.37" stop-color="#F6F5F4"/>
<stop offset="0.74" stop-color="#E2DED9"/>
<stop offset="1" stop-color="#D1CBC3"/>
</radialGradient>
<radialGradient id="paint1_radial_1_55" cx="0" cy="0" r="1" gradientUnits="userSpaceOnUse" gradientTransform="translate(117.5 120.43) scale(15.82 15.82)">
<stop offset="0.16" stop-color="#FEFEFE"/>
<stop offset="0.37" stop-color="#F6F5F4"/>
<stop offset="0.74" stop-color="#E2DED9"/>
<stop offset="1" stop-color="#D1CBC3"/>
</radialGradient>
<radialGradient id="paint2_radial_1_55" cx="0" cy="0" r="1" gradientUnits="userSpaceOnUse" gradientTransform="translate(78.93 115.05) scale(6.85 6.84998)">
<stop offset="0.16" stop-color="#FEFEFE"/>
<stop offset="0.37" stop-color="#F6F5F4"/>
<stop offset="0.74" stop-color="#E2DED9"/>
<stop offset="1" stop-color="#D1CBC3"/>
</radialGradient>
<radialGradient id="paint3_radial_1_55" cx="0" cy="0" r="1" gradientUnits="userSpaceOnUse" gradientTransform="translate(89.7 151.82) scale(6.85 6.85001)">
<stop offset="0.16" stop-color="#FEFEFE"/>
<stop offset="0.37" stop-color="#F6F5F4"/>
<stop offset="0.74" stop-color="#E2DED9"/>
<stop offset="1" stop-color="#D1CBC3"/>
</radialGradient>
<radialGradient id="paint4_radial_1_55" cx="0" cy="0" r="1" gradientUnits="userSpaceOnUse" gradientTransform="translate(33.19 113.26) scale(6.85 6.84998)">
<stop offset="0.16" stop-color="#FEFEFE"/>
<stop offset="0.37" stop-color="#F6F5F4"/>
<stop offset="0.74" stop-color="#E2DED9"/>
<stop offset="1" stop-color="#D1CBC3"/>
</radialGradient>
<radialGradient id="paint5_radial_1_55" cx="0" cy="0" r="1" gradientUnits="userSpaceOnUse" gradientTransform="translate(57.85 45.9) scale(84.07 84.07)">
<stop offset="0.16" stop-color="#FEFEFE"/>
<stop offset="0.37" stop-color="#F6F5F4"/>
<stop offset="0.74" stop-color="#E2DED9"/>
<stop offset="1" stop-color="#D1CBC3"/>
</radialGradient>
</defs>
</svg>
