<svg width="161" height="150" viewBox="0 0 161 150" fill="none" xmlns="http://www.w3.org/2000/svg">
<g opacity="0.95">
<g filter="url(#filter0_d_7_118)">
<path d="M83.58 132.33L68.02 116.84L46.15 114.97L44.19 93.1L28.63 77.61L41.19 59.6L39.23 37.74L60.42 32.01L72.98 14L92.89 23.24L114.08 17.51L123.4 37.39L143.32 46.63L137.68 67.84L147 87.72L129.04 100.35L123.41 121.57L101.53 119.7L83.58 132.33Z" fill="url(#paint0_linear_7_118)"/>
</g>
<g filter="url(#filter1_d_7_118)">
<path d="M87.7801 118.97C113.031 118.97 133.5 98.5005 133.5 73.25C133.5 47.9995 113.031 27.53 87.7801 27.53C62.5296 27.53 42.0601 47.9995 42.0601 73.25C42.0601 98.5005 62.5296 118.97 87.7801 118.97Z" fill="url(#paint1_linear_7_118)"/>
</g>
</g>
<defs>
<filter id="filter0_d_7_118" x="14.63" y="0" width="146.37" height="146.33" filterUnits="userSpaceOnUse" color-interpolation-filters="sRGB">
<feFlood flood-opacity="0" result="BackgroundImageFix"/>
<feColorMatrix in="SourceAlpha" type="matrix" values="0 0 0 0 0 0 0 0 0 0 0 0 0 0 0 0 0 0 127 0" result="hardAlpha"/>
<feOffset/>
<feGaussianBlur stdDeviation="7"/>
<feColorMatrix type="matrix" values="0 0 0 0 0.980392 0 0 0 0 0.733333 0 0 0 0 0.254902 0 0 0 0.34 0"/>
<feBlend mode="normal" in2="BackgroundImageFix" result="effect1_dropShadow_7_118"/>
<feBlend mode="normal" in="SourceGraphic" in2="effect1_dropShadow_7_118" result="shape"/>
</filter>
<filter id="filter1_d_7_118" x="34.0601" y="18.53" width="111.44" height="111.44" filterUnits="userSpaceOnUse" color-interpolation-filters="sRGB">
<feFlood flood-opacity="0" result="BackgroundImageFix"/>
<feColorMatrix in="SourceAlpha" type="matrix" values="0 0 0 0 0 0 0 0 0 0 0 0 0 0 0 0 0 0 127 0" result="hardAlpha"/>
<feOffset dx="2" dy="1"/>
<feGaussianBlur stdDeviation="5"/>
<feColorMatrix type="matrix" values="0 0 0 0 0.239216 0 0 0 0 0.152941 0 0 0 0 0.0352941 0 0 0 0.32 0"/>
<feBlend mode="normal" in2="BackgroundImageFix" result="effect1_dropShadow_7_118"/>
<feBlend mode="normal" in="SourceGraphic" in2="effect1_dropShadow_7_118" result="shape"/>
</filter>
<linearGradient id="paint0_linear_7_118" x1="46.773" y1="30.5256" x2="106.452" y2="93.0855" gradientUnits="userSpaceOnUse">
<stop stop-color="#FABB41"/>
<stop offset="0.24" stop-color="#F9B43C"/>
<stop offset="0.57" stop-color="#F8A330"/>
<stop offset="0.95" stop-color="#F7861D"/>
<stop offset="1" stop-color="#F7821A"/>
</linearGradient>
<linearGradient id="paint1_linear_7_118" x1="42.396" y1="67.4574" x2="133.129" y2="79.0483" gradientUnits="userSpaceOnUse">
<stop stop-color="white"/>
<stop offset="0.11" stop-color="#FFF5DF"/>
<stop offset="0.23" stop-color="#FFEDC6"/>
<stop offset="0.36" stop-color="#FFE6B2"/>
<stop offset="0.51" stop-color="#FFE2A3"/>
<stop offset="0.69" stop-color="#FFDF9B"/>
<stop offset="1" stop-color="#FFDF99"/>
</linearGradient>
</defs>
</svg>
