<svg width="472" height="480" viewBox="0 0 472 480" fill="none" xmlns="http://www.w3.org/2000/svg">
<path d="M304.8 75.2H139.2V47.2C139.2 32.4245 151.266 20 166.4 20H277.6C292.375 20 304.8 32.0656 304.8 47.2V75.2Z" stroke="#464B4F" stroke-width="40"/>
<path d="M423.209 87.412L423.2 87.706V88V217.497C423.197 217.53 423.192 217.591 423.181 217.678C423.153 217.903 423.101 218.204 423.015 218.539C422.86 219.15 422.67 219.586 422.53 219.838C422.242 219.909 421.695 220 420.8 220H248C240.891 220 231.458 222.458 223.758 230.158C215.778 238.137 212 249.372 212 262.4V433.6C212 434.044 211.95 434.928 211.738 435.896C211.524 436.875 211.246 437.473 211.075 437.744C211.05 437.784 211.031 437.812 211.017 437.83C211.015 437.83 211.014 437.831 211.012 437.832L211.011 437.833C210.971 437.855 209.979 438.4 207.2 438.4H47.2C32.4245 438.4 20 426.334 20 411.2V86.4C20 71.6245 32.0656 59.2 47.2 59.2H51.2V79.2C51.2 124.481 87.99 162.4 134.4 162.4H308.8C354.081 162.4 392 125.61 392 79.2V59.2H396C411.247 59.2 423.674 71.6058 423.209 87.412ZM422.787 219.755C422.788 219.756 422.773 219.764 422.74 219.776C422.77 219.761 422.786 219.754 422.787 219.755Z" stroke="#464B4F" stroke-width="40"/>
<path d="M463.2 323.2H288.8C284 323.2 280 319.2 280 314.4V296.8C280 292 284 288 288.8 288H463.2C468 288 472 292 472 296.8V314.4C472 319.2 468 323.2 463.2 323.2ZM463.2 401.6H288.8C284 401.6 280 397.6 280 392.8V375.2C280 370.4 284 366.4 288.8 366.4H463.2C468 366.4 472 370.4 472 375.2V392.8C472 397.6 468 401.6 463.2 401.6ZM463.2 480H288.8C284 480 280 476 280 471.2V453.6C280 448.8 284 444.8 288.8 444.8H463.2C468 444.8 472 448.8 472 453.6V471.2C472 476 468 480 463.2 480Z" fill="#464B4F"/>
</svg>
